<svg xmlns="http://www.w3.org/2000/svg" viewBox="0 0 96 96" width="24" height="24" fill="white">
    <path d="M0 0 C11.4286193 4.10432245 20.00407388 12.60629391 25.53369141 23.26904297 C28.96782251 32.99863499 28.92095993 42.5326914 25.53369141 52.26904297 C20.8621398 61.67267276 13.96941679 68.64032301 4.53369141 73.26904297 C-6.89141956 76.99295042 -19.01071645 76.92640334 -29.90332031 71.58300781 C-39.84847358 65.23532684 -46.81986791 56.79046724 -49.51318359 45.19091797 C-50.9229984 34.56842391 -49.44332879 25.53369036 -43.50537109 16.52685547 C-32.40057505 2.51774496 -17.93973373 -4.23324346 0 0 Z M-40.46630859 25.26904297 C-43.27482375 33.30540847 -43.22720472 41.22577819 -40.46630859 49.26904297 C-36.70087275 56.9024592 -31.12059876 62.5313706 -23.46630859 66.26904297 C-14.23589036 69.27991389 -4.49372094 69.21229336 4.31152344 64.91259766 C12.43646855 59.75424129 18.03498601 52.89091977 20.19775391 43.42919922 C21.34324427 34.66076001 20.19559964 27.16405992 15.26806641 19.73388672 C9.07948726 11.96911797 1.94973686 6.51013616 -8.04980469 5.13623047 C-22.54549301 4.55378192 -33.85665787 12.55665697 -40.46630859 25.26904297 Z " fill="#FFFFFF" transform="translate(58.46630859375,10.73095703125)"/>
    <path d="M0 0 C3.24811347 2.40077952 4.68969068 4.14208601 6.0625 7.9375 C5.97939888 12.00945507 4.53529331 13.88521107 2 17 C-1.10048928 18.55024464 -3.57894218 18.28992015 -7 18 C-10.75514634 15.9591596 -11.77457968 14.71604102 -13.0625 10.625 C-12.98603205 6.18985876 -11.80644332 4.36773198 -9 1 C-5.86128812 -0.56935594 -3.46144178 -0.35201103 0 0 Z " fill="#FFFFFF" transform="translate(69,39)"/>
</svg>
